# xmcd CD database file
#
# Track frame offsets:
#	150
#	17769
#	38988
#	60066
#	81496
#	100016
#	122288
#	143579
#	164448
#
# Disc length: 2432 seconds
#
# Revision: 2
# Processed by: cddbd v1.5.2PL0 Copyright (c) Steve Scherf et al.
# Submitted via: CDex 1.51
#
DISCID=64097e09
DTITLE=Anita Muir - Forever 1
DYEAR=2004
DGENRE=Pop
TTITLE0=Bu Huo
TTITLE1=Chuang Qian Ming Yua Guang
TTITLE2=Yi Sheng Ai Ni Qian Bai Hui
TTITLE3=Nu Ren Hua
TTITLE4=Gan Qing Bao Fu
TTITLE5=Xiang De Kai
TTITLE6=Nu Er Hong
TTITLE7=Yue Guang
TTITLE8=Xia Bei Zi Bie Zai Zuo Nu Ren
EXTD=YEAR: 2004
EXTT0=
EXTT1=
EXTT2=
EXTT3=
EXTT4=
EXTT5=
EXTT6=
EXTT7=
EXTT8=
PLAYORDER=
